<svg xmlns="http://www.w3.org/2000/svg" width="960" height="280" viewBox="0 0 960 280" role="img" aria-labelledby="title"><title id="title">AI-Bajka. Opowieść, która odpowiada. Teatr / AI / interakcja. Poznaj projekt.</title><defs><pattern id="dots" width="9" height="9" patternUnits="userSpaceOnUse"><circle cx="2" cy="2" r="1" fill="#141819" opacity=".16"/></pattern><clipPath id="frame"><rect width="960" height="280" rx="20"/></clipPath></defs><g clip-path="url(#frame)" font-family="Arial, Helvetica, sans-serif"><rect width="960" height="280" fill="#f5f1e8"/><rect x="599" width="361" height="280" fill="#e1dcec"/><rect x="599" y="15" width="345" height="251" fill="url(#dots)"/>
<text x="36" y="43" font-size="15" font-weight="700" letter-spacing="2" fill="#244bdb">WYBRANE REALIZACJE / 04</text>
<text x="34" y="104" font-size="43" font-weight="700" letter-spacing="-1" fill="#141819">AI-Bajka</text>
<text x="36" y="149" font-size="25" fill="#343b3e">Opowieść, która odpowiada.</text>
<text x="36" y="184" font-size="19" fill="#51585b">Teatr / AI / interakcja</text>
<path d="M36 210H560" stroke="#d3cfc6"/>
<text x="36" y="249" font-size="20" font-weight="700" fill="#244bdb">Poznaj projekt</text><path d="M527 241h28m-9-9 9 9-9 9" stroke="#244bdb" stroke-width="2" fill="none"/>
<rect x="640" y="41" width="247" height="203" rx="70" fill="#252443"/>
<path d="M640 68Q704 107 666 225H640ZM887 68Q823 107 861 225H887Z" fill="#645789"/>
<path d="M649 236Q765 209 878 236" stroke="#ab9cbf" stroke-width="4" fill="none"/>
<path d="M782 71a31 31 0 1 0 28 47 28 28 0 0 1-28-47Z" fill="#e8cb7a"/>
<g fill="#f5f1e8"><circle cx="705" cy="87" r="3"/><circle cx="835" cy="142" r="3"/><path d="m733 65 3 7 7 3-7 3-3 7-3-7-7-3 7-3Z"/></g>
<path d="M690 143Q731 129 768 145Q807 129 842 143V206Q804 193 768 212Q728 195 690 206Z" fill="#fffdf7"/>
<path d="M768 145V212" stroke="#b6abc7" stroke-width="2"/>
<path d="M834 164h49a15 15 0 0 1 15 15v10a15 15 0 0 1-15 15h-26l-17 15v-15h-6a15 15 0 0 1-15-15v-10a15 15 0 0 1 15-15Z" fill="#244bdb"/>
<g fill="white"><circle cx="840" cy="184" r="3"/><circle cx="855" cy="184" r="3"/><circle cx="870" cy="184" r="3"/></g>
</g></svg>