<svg xmlns="http://www.w3.org/2000/svg" width="960" height="280" viewBox="0 0 960 280" role="img" aria-labelledby="title"><title id="title">Śląskie Ślady. Pamięć regionu. Cyfrowy dostęp. Archiwum / mapa / multimedia. Poznaj projekt.</title><defs><pattern id="dots" width="9" height="9" patternUnits="userSpaceOnUse"><circle cx="2" cy="2" r="1" fill="#141819" opacity=".16"/></pattern><clipPath id="frame"><rect width="960" height="280" rx="20"/></clipPath></defs><g clip-path="url(#frame)" font-family="Arial, Helvetica, sans-serif"><rect width="960" height="280" fill="#f5f1e8"/><rect x="599" width="361" height="280" fill="#e8ddc9"/><rect x="599" y="15" width="345" height="251" fill="url(#dots)"/>
<text x="36" y="43" font-size="15" font-weight="700" letter-spacing="2" fill="#244bdb">WYBRANE REALIZACJE / 03</text>
<text x="34" y="104" font-size="43" font-weight="700" letter-spacing="-1" fill="#141819">Śląskie Ślady</text>
<text x="36" y="149" font-size="25" fill="#343b3e">Pamięć regionu. Cyfrowy dostęp.</text>
<text x="36" y="184" font-size="19" fill="#51585b">Archiwum / mapa / multimedia</text>
<path d="M36 210H560" stroke="#d3cfc6"/>
<text x="36" y="249" font-size="20" font-weight="700" fill="#244bdb">Poznaj projekt</text><path d="M527 241h28m-9-9 9 9-9 9" stroke="#244bdb" stroke-width="2" fill="none"/>
<rect x="658" y="43" width="205" height="197" fill="#324139" transform="rotate(-8 760 140)"/>
<rect x="643" y="54" width="220" height="180" fill="#fffdf7" stroke="#c6bda9"/>
<rect x="657" y="67" width="192" height="132" fill="#d3cebe"/>
<path d="M657 169 702 129 741 157 784 111 849 160V199H657Z" fill="#8d998a"/>
<path d="M706 120H785V199H706Z" fill="#3e4941"/><path d="m696 120 49-27 50 27Z" fill="#566350"/>
<path d="M789 85h13v114h-13Z" fill="#566350"/>
<g fill="#d9d6c8"><path d="M717 134h13v18h-13ZM745 134h13v18h-13ZM769 134h8v18h-8Z"/></g>
<path d="M660 217H737" stroke="#8b8d7f" stroke-width="3"/>
<path d="M856 124c-25 0-42 18-42 41 0 31 42 68 42 68s42-37 42-68c0-23-17-41-42-41Z" fill="#244bdb"/><circle cx="856" cy="165" r="13" fill="#f5f1e8"/>
</g></svg>